<svg width="20" height="24" viewBox="0 0 20 24" fill="none" xmlns="http://www.w3.org/2000/svg">
<path fill-rule="evenodd" clip-rule="evenodd" d="M18.77 6.42C18.2864 6.23839 17.7763 6.13705 17.26 6.12C15.6 6 12.94 6 11.75 6C12.16 5.09 12.97 3.3 13.36 2.48C13.41 2.36 13.62 2.09 13.62 1.88C13.62 1.67 13.21 1.26 12.93 1.75C12.93 1.81 12.82 1.96 12.72 2.17C12.16 3.3 10.79 6.23 10.79 6.23C10.7602 6.28889 10.7446 6.35398 10.7446 6.42C10.7446 6.48603 10.7602 6.55112 10.79 6.61C10.8252 6.6649 10.8742 6.70953 10.9322 6.73938C10.9901 6.76924 11.0549 6.78325 11.12 6.78C13.3709 6.7598 15.6212 6.86663 17.86 7.1H18C17.9604 7.17548 17.917 7.24891 17.87 7.32C17.243 8.12348 16.5755 8.89448 15.87 9.63C14.6 10.98 13.05 12.53 11.75 13.8C10.64 14.93 5.00002 20.2 2.52002 22.19L2.13002 22.49C2.36463 21.6936 2.70072 20.9307 3.13002 20.22C4.26002 18.14 6.07002 15.41 7.70002 12.72C7.803 12.5869 7.85888 12.4233 7.85888 12.255C7.85888 12.0867 7.803 11.9231 7.70002 11.79C7.56509 11.6259 7.37805 11.513 7.17002 11.47C6.78797 11.4258 6.40208 11.4258 6.02002 11.47L2.75002 11.55H2.10002C2.18002 11.37 2.30002 11.15 2.38002 10.93C3.28002 8.4 5.69002 2.47 6.46002 0.930003C6.89002 0.820003 7.91002 0.800003 8.00002 0.790003C8.75002 0.730003 9.52002 0.700003 10.29 0.680003H13.79C13.8334 0.680207 13.8763 0.671311 13.916 0.653891C13.9557 0.636471 13.9913 0.610913 14.0206 0.578871C14.0498 0.546828 14.0719 0.509012 14.0856 0.467867C14.0993 0.426722 14.1042 0.383162 14.1 0.340003C14.1042 0.296845 14.0993 0.253285 14.0856 0.21214C14.0719 0.170995 14.0498 0.133179 14.0206 0.101136C13.9913 0.0690934 13.9557 0.0435361 13.916 0.0261158C13.8763 0.00869558 13.8334 -0.000200157 13.79 3.41664e-06H9.69002C9.11002 3.41664e-06 8.52002 3.41982e-06 7.92002 0.0700034H6.31002C6.131 0.0860629 5.96561 0.172351 5.85002 0.310003C5.13002 1.6 2.44002 7.87 1.43002 10.51C1.28172 10.8688 1.15483 11.2361 1.05002 11.61C1.01497 11.7147 1.00949 11.8271 1.03419 11.9347C1.05889 12.0423 1.11281 12.1411 1.19002 12.22C1.35666 12.3588 1.55654 12.4518 1.77002 12.49C2.10262 12.5214 2.43743 12.5214 2.77002 12.49L6.00002 12.5C6.14253 12.5168 6.28315 12.5469 6.42002 12.59C4.51002 15.66 2.42002 18.73 1.48002 20.8C1.17697 21.3902 0.983829 22.0306 0.910023 22.69C0.880383 22.9139 0.910041 23.1416 0.99603 23.3505C1.08202 23.5593 1.22133 23.7419 1.40002 23.88C1.5103 23.9461 1.63646 23.981 1.76502 23.981C1.89359 23.981 2.01975 23.9461 2.13002 23.88C2.5349 23.6468 2.91663 23.3756 3.27002 23.07C5.75002 21.07 11.39 15.66 12.51 14.53C14.3 12.73 16.51 10.36 17.89 8.78C18.4274 8.24462 18.8375 7.59528 19.09 6.88C19.0818 6.78198 19.0479 6.68785 18.9917 6.6071C18.9355 6.52635 18.8591 6.46182 18.77 6.42Z" fill="#272624"/>
</svg>
