<svg width="25" height="26" viewBox="0 0 25 26" fill="none" xmlns="http://www.w3.org/2000/svg">
<path d="M16.0001 2.44946C16.7745 2.42863 17.5496 2.43908 18.3234 2.48071H18.3263L19.6818 2.58813C20.124 2.62284 20.5602 2.64966 21.0001 2.64966H22.7804V2.65161C22.9285 2.6462 23.0737 2.69385 23.1876 2.78931C23.2761 2.86345 23.341 2.96093 23.3751 3.06958L23.3986 3.18188L23.3995 3.19458L23.3956 3.31079C23.3803 3.42577 23.331 3.53429 23.254 3.62329C23.1515 3.74182 23.0069 3.8162 22.8507 3.82935L22.8497 3.82837C22.2476 3.88765 21.6239 3.9602 21.0001 3.96021V3.95923C20.0983 4.01863 19.1978 4.0188 18.297 4.0188L18.298 4.01978L12.298 4.19946L12.2941 4.20044V4.19946C11.9858 4.20476 11.6654 4.1704 11.3595 4.13696C11.0476 4.10286 10.7489 4.06959 10.4601 4.06958H10.4484C10.2349 4.0599 10.0206 4.07239 9.80969 4.10669L9.80872 4.10571C9.74935 4.12138 9.68851 4.13094 9.62708 4.12622C9.5502 4.12031 9.47517 4.09747 9.40735 4.06079C9.33981 4.02419 9.28042 3.97417 9.23352 3.91333C9.18649 3.85222 9.15298 3.78127 9.13489 3.7063C9.11682 3.6314 9.1141 3.55356 9.12805 3.47778C9.14203 3.40194 9.17231 3.32946 9.21594 3.26587C9.25954 3.20243 9.31635 3.1489 9.38196 3.10864C9.4381 3.07424 9.50012 3.05185 9.56458 3.03931V3.03833C9.85068 2.96112 10.1446 2.91584 10.4406 2.90161L10.6759 2.8811C10.9115 2.86631 11.1461 2.86748 11.3673 2.86841C11.6686 2.86967 11.9453 2.86922 12.2042 2.83228H12.2081L13.7091 2.63403C14.2124 2.57115 14.718 2.51605 15.2228 2.48071H15.2267L16.0001 2.44946Z" fill="white" stroke="white" stroke-width="0.5"/>
<path d="M21.3469 11.7499L21.3459 11.7509L21.3489 11.7499C21.825 11.7482 22.3009 11.7861 22.7708 11.8632L22.7698 11.8642C22.8452 11.8753 22.9179 11.8997 22.9836 11.9384C23.0512 11.9783 23.1106 12.0317 23.1575 12.0947C23.2043 12.1576 23.2383 12.2294 23.2571 12.3056C23.2758 12.3819 23.2791 12.4614 23.2668 12.539L23.2659 12.5478C23.2366 12.698 23.1509 12.8316 23.0266 12.9208C22.9058 13.0076 22.7571 13.0448 22.6096 13.0283V13.0292C22.1905 12.9953 21.769 12.9953 21.3499 13.0292H21.344C20.8216 13.0585 20.2882 13.1373 19.7483 13.2128C19.2136 13.2876 18.6715 13.3597 18.1545 13.3701C17.1663 13.3898 16.1512 13.4404 15.1497 13.4404C14.8146 13.4404 14.4504 13.4274 14.1038 13.415C13.7545 13.4024 13.4241 13.3896 13.1497 13.3896H11.4504C11.1024 13.3897 10.7546 13.4191 10.4114 13.4765L10.4104 13.4745C10.3451 13.4888 10.2784 13.4933 10.2122 13.4833C10.1382 13.4722 10.0667 13.4466 10.0032 13.4072C9.93976 13.3677 9.8857 13.3151 9.84302 13.2538C9.80433 13.1983 9.77805 13.1359 9.76196 13.0703L9.76001 13.0712C9.75862 13.0665 9.75932 13.0613 9.75806 13.0566C9.75757 13.0543 9.75559 13.052 9.75513 13.0497L9.7561 13.0488C9.73923 12.982 9.73367 12.9131 9.74243 12.8447C9.75217 12.7687 9.77705 12.6953 9.81665 12.6298C9.85636 12.5642 9.91004 12.5077 9.9729 12.4638C10.031 12.4233 10.0964 12.3956 10.1653 12.3798V12.3788C10.5605 12.2736 10.9628 12.1946 11.3684 12.1425L11.3694 12.1415L11.804 12.0956C12.2403 12.0547 12.6802 12.0278 13.0979 11.9911H13.0989L14.3596 11.8749C14.7862 11.8383 15.2178 11.8095 15.6497 11.8095H15.7268C15.7727 11.8091 15.8374 11.8084 15.9182 11.8076C16.0802 11.8059 16.3071 11.8035 16.5764 11.8007C17.1149 11.7951 17.8248 11.7877 18.5315 11.7802C19.2381 11.7727 19.9418 11.7653 20.469 11.7597C20.5702 11.7586 20.6653 11.7577 20.7522 11.7568L20.7483 11.7519L21.3274 11.7509C21.3287 11.7509 21.3301 11.75 21.3313 11.7499H21.3469Z" fill="white" stroke="white" stroke-width="0.5"/>
<path d="M15.87 20.5L16.3543 20.5107C16.5155 20.5174 16.676 20.5264 16.8348 20.5352C17.1546 20.5527 17.4681 20.5703 17.7801 20.5703H17.7918L17.8036 20.5713L19.6942 20.751H19.6952L22.7166 21.0586L22.6668 20.9785L23.1756 21.0312L23.2889 21.0547C23.326 21.0661 23.3621 21.0811 23.3963 21.0996C23.4646 21.1365 23.5251 21.1868 23.5741 21.2471C23.623 21.3073 23.6603 21.3768 23.6825 21.4512C23.7046 21.5255 23.7119 21.6035 23.7039 21.6807C23.696 21.758 23.6725 21.833 23.6356 21.9014C23.5987 21.9697 23.5484 22.0301 23.4881 22.0791C23.4279 22.1281 23.3584 22.1653 23.284 22.1875C23.2178 22.2072 23.1487 22.2131 23.0799 22.209V22.21H19.5936L13.3602 22.0498C12.7151 22.0981 11.9999 22.05 11.3641 22.0498C11.0986 22.0559 10.8339 22.0812 10.5721 22.126L10.5711 22.125C10.4319 22.1524 10.2877 22.1264 10.1678 22.0498C10.0446 21.971 9.95717 21.8469 9.92563 21.7041C9.89414 21.5612 9.92111 21.4114 9.99985 21.2881C10.0771 21.1671 10.1983 21.0809 10.3377 21.0479L10.5682 20.9922C10.7985 20.941 11.0312 20.901 11.2655 20.8721L11.7704 20.8145C11.9393 20.7983 12.1088 20.7842 12.2762 20.7705C12.6136 20.7429 12.9444 20.7158 13.2664 20.6719H13.2694L13.9168 20.6006C14.5654 20.5387 15.2164 20.5052 15.868 20.5H15.87Z" fill="white" stroke="white" stroke-width="0.5"/>
<path d="M3.61191 0.726807C4.15872 0.693466 4.70426 0.820868 5.18027 1.09204C5.65604 1.3632 6.04248 1.76697 6.29257 2.25415C6.54024 2.73664 6.64284 3.2801 6.58945 3.81958C6.60966 4.37801 6.44654 4.92751 6.12363 5.38403L6.11972 5.39087L6.11484 5.39673C5.82376 5.75734 5.44274 6.03564 5.01035 6.20239C4.57966 6.36849 4.11295 6.41748 3.65683 6.34692C3.22404 6.30659 2.80325 6.18221 2.41855 5.97974C2.03078 5.77562 1.68727 5.49695 1.40781 5.15942L1.40488 5.15649C1.16922 4.86388 0.999966 4.52366 0.907806 4.15942C0.815607 3.795 0.802437 3.41482 0.870697 3.04517C0.938966 2.67555 1.08707 2.32525 1.30331 2.01782C1.51772 1.71304 1.79456 1.4575 2.11581 1.2688C2.5522 0.948545 3.07138 0.759853 3.61191 0.726807ZM4.2623 2.03052C3.99959 2.01724 3.71653 2.08269 3.46835 2.17505C3.21867 2.26798 3.02769 2.37965 2.95273 2.43774L2.94687 2.44263L2.93906 2.44751C2.80533 2.53726 2.69223 2.65459 2.60703 2.79126C2.52187 2.92788 2.46663 3.08096 2.44492 3.24048C2.42323 3.40003 2.43546 3.56261 2.48105 3.71704C2.51527 3.83286 2.56804 3.94226 2.63632 4.04126L2.70956 4.13696L2.71152 4.13892L2.8248 4.26196C3.06353 4.49603 3.36474 4.65642 3.69199 4.72485L3.858 4.75122L3.8746 4.75317L3.8912 4.75708L4.04062 4.7854C4.19107 4.80372 4.34414 4.79404 4.49179 4.7561C4.68232 4.70707 4.85746 4.61125 5.00351 4.47974C5.20184 4.21073 5.29461 3.87824 5.26132 3.54517L5.26035 3.53638V3.52759C5.24133 2.90488 5.09508 2.54152 4.91855 2.33325C4.74674 2.13076 4.51945 2.04353 4.2623 2.03052Z" fill="white" stroke="white" stroke-width="0.5"/>
<path d="M3.51968 9.96991C4.07541 9.93544 4.63054 10.0521 5.12515 10.3078C5.61962 10.5635 6.0351 10.9489 6.32828 11.4221C6.62151 11.8954 6.78152 12.4395 6.79019 12.9963V13.0012C6.788 13.7586 6.52746 14.4927 6.05191 15.0822C5.5763 15.6718 4.91388 16.0819 4.17398 16.2443L4.17007 16.2453C3.93223 16.2942 3.69012 16.3226 3.44742 16.3303H3.44351C3.18062 16.3336 2.91801 16.3043 2.66226 16.2433L2.65152 16.2404C1.87914 16.0208 1.21534 15.523 0.788239 14.843L0.787262 14.841C0.575595 14.4958 0.43394 14.1113 0.372223 13.7111C0.310561 13.311 0.33012 12.9028 0.427887 12.5099L0.42984 12.5012L0.431793 12.4933C0.696079 11.671 1.24025 10.9676 1.9689 10.5041L2.14468 10.3918C2.56245 10.1452 3.03352 10.0001 3.51968 9.96991ZM3.58218 11.1945C3.26229 11.2231 2.95745 11.345 2.70621 11.5451L2.70035 11.55C2.27617 11.8697 1.98012 12.3303 1.86539 12.8488C1.80812 13.1941 1.8716 13.5471 2.04312 13.8488L2.12418 13.9758L2.13101 13.9855L2.21695 14.1076C2.4296 14.3811 2.72717 14.5786 3.06461 14.6682L3.24234 14.7023C3.30221 14.7093 3.3626 14.7118 3.423 14.7101H3.42691L3.6398 14.6974C3.71021 14.69 3.7803 14.6793 3.84976 14.6652L3.86343 14.6623L4.0148 14.634C4.36133 14.5519 4.67602 14.365 4.91519 14.0978C5.18846 13.7925 5.34635 13.401 5.3605 12.9914V12.9767H5.36148C5.39057 12.657 5.32475 12.3358 5.173 12.0529C5.02103 11.7698 4.78887 11.5375 4.50601 11.3849C4.22326 11.2325 3.90215 11.166 3.58218 11.1945Z" fill="white" stroke="white" stroke-width="0.5"/>
<path d="M2.46552 19.3025C2.61546 19.2311 3.27488 18.9522 4.04462 19.0798C4.84885 19.2132 5.70689 19.779 6.23212 21.2888H6.23309C6.50125 21.9709 6.50138 22.7298 6.23309 23.4119L6.22821 23.4236L5.99969 23.3201L6.22723 23.4236C6.01916 23.8824 5.69993 24.2823 5.29852 24.5867C4.90167 24.8875 4.43663 25.0844 3.94501 25.1628L3.94598 25.1638C3.46115 25.2748 2.95754 25.2798 2.4704 25.1794C1.98353 25.079 1.52397 24.8753 1.12274 24.5818L1.11591 24.5769L1.11005 24.572C0.741421 24.265 0.475416 23.8552 0.343445 23.3972L0.294617 23.198L0.29364 23.1912C0.176697 22.4925 0.285331 21.7748 0.604187 21.1423L0.761414 20.8455C1.10058 20.268 1.58528 19.7892 2.16669 19.4568L2.46552 19.3025ZM3.87274 20.2986C3.65809 20.249 3.38378 20.2723 3.03387 20.4666C2.5497 20.7619 2.18031 21.2132 1.98505 21.7458L1.98212 21.7517C1.89307 21.9762 1.84494 22.2146 1.83954 22.4548L1.8493 22.696V22.7019L1.86005 22.7869C1.87504 22.8717 1.90317 22.9542 1.94305 23.031C1.99561 23.1321 2.06815 23.2211 2.15594 23.2937C2.36413 23.4512 2.60335 23.5625 2.85809 23.6199C3.11467 23.6776 3.38107 23.6801 3.63837 23.6257L3.6579 23.6208L3.67743 23.6199C3.93246 23.6066 4.1807 23.5319 4.40009 23.4011C4.61586 23.2725 4.79596 23.0929 4.92841 22.8796C5.09859 22.5113 5.12565 22.0925 5.00165 21.7058L4.99969 21.699C4.96293 21.5703 4.78783 21.049 4.45087 20.6716C4.2852 20.4861 4.09304 20.3496 3.87274 20.2986Z" fill="white" stroke="white" stroke-width="0.5"/>
</svg>
