<svg width="754" height="1097" viewBox="0 0 754 1097" fill="none" xmlns="http://www.w3.org/2000/svg">
<path fill-rule="evenodd" clip-rule="evenodd" d="M270.373 275.358C202.073 249.477 130.427 216.114 93.5797 168.527C62.0988 127.848 55.8668 76.8803 101.986 10.4261C108.477 1.06333 99.2838 -2.2961 81.4392 2.95365C63.6062 8.19266 43.837 20.0607 37.3324 29.43C-12.9589 101.914 -8.0363 158.305 26.3159 202.67C63.8146 251.118 136.241 285.331 205.657 311.854C170.965 335.576 141.725 364.124 125.937 397.164C101.679 447.916 123.042 490.899 167.314 525.668C231.508 576.103 342.847 609.936 419.64 629.173C422.777 629.969 427.677 631.042 434.009 632.195C426.997 636.865 420.155 641.607 413.509 646.408C355.565 688.203 313.912 732.759 305.368 761.787C251.21 945.876 462.39 1028.21 634.282 1095.28C642.068 1098.29 662.456 1092.4 679.775 1082.14C697.075 1071.83 704.796 1061.02 696.99 1057.96C529.905 992.783 321.035 914.567 373.642 735.643C380.127 713.616 412.296 679.7 456.274 647.987C461.175 644.439 466.258 640.957 471.444 637.477C506.731 641.127 554.159 642.559 599.851 633.585C646.706 624.41 692.403 605.678 729.745 575.937C761.646 550.467 758.724 536.63 733.93 532.738C707.333 528.486 653.909 536.675 629.843 542.599C584.878 553.635 539.309 572.253 496.935 594.668C489.329 593.31 483.536 592.021 480.099 591.16C405 572.336 295.918 539.39 233.14 490.079C192.738 458.354 170.971 420.198 193.094 373.891C202.541 354.136 216.578 337.319 235.299 322.831C248.031 327.433 260.476 331.79 272.359 335.955C295.861 344.193 338.035 364.607 396.15 365.679C442.36 366.534 499.028 354.878 561.996 323.554C594.347 307.463 613.279 291.219 621.023 276.178C632.583 253.709 612.353 234.274 601.968 228.415C570.512 210.623 476.524 211.991 381.514 236.095C343.603 245.712 305.477 258.954 270.373 275.358ZM302.246 287.059C313.328 291.026 324.151 294.805 334.536 298.441C356.479 306.127 394.928 325.779 449.198 326.777C477.926 327.31 510.193 323.49 549.351 304.009C552.396 302.493 552.818 301.143 553.675 299.718C554.981 297.522 555.6 295.431 555.886 293.382C557.822 279.524 544.259 268.715 537.474 264.886C511.078 249.959 431.797 251.434 352.073 271.662C335.233 275.934 318.415 280.981 302.246 287.059ZM538.204 600.102C559.387 601.938 584.235 602.568 609.793 600.186C623.366 598.919 636.945 596.828 650.329 593.188C661.409 590.199 672.171 585.926 681.112 578.784C684.739 575.903 684.157 574.49 682.711 573.442C681.171 572.338 678.685 571.639 675.695 571.183C656.169 568.085 616.948 574.088 599.297 578.453C578.806 583.471 558.204 591.008 538.204 600.102Z" fill="#B7B5A2" fill-opacity="0.1"/>
</svg>
