<svg width="444" height="163" viewBox="0 0 444 163" fill="none" xmlns="http://www.w3.org/2000/svg">
<path d="M359.021 59.0127C359.778 58.9528 360.54 59.1121 361.203 59.4756C361.867 59.8394 362.404 60.3939 362.726 61.0742C363.047 61.7564 363.13 62.5212 362.956 63.2549L362.914 63.4346L362.811 63.5869C359.476 68.491 355.692 73.1226 351.501 77.4326C344.907 85.8975 337.017 93.4378 328.077 99.8193L328.066 99.8271L328.055 99.835C324.414 102.29 321.032 103.035 318.166 102.376C315.293 101.716 313.134 99.6892 311.867 97.0107C310.713 94.5708 309.058 90.9886 308.352 88.1592C308.173 87.4443 308.047 86.7478 308.011 86.1104C307.975 85.4842 308.021 84.8418 308.246 84.2783C308.486 83.6784 308.93 83.1787 309.607 82.9346C310.161 82.7353 310.779 82.7398 311.42 82.8682L311.696 82.9307L311.713 82.9346L311.729 82.9395C312.888 83.2713 313.805 84.0957 314.553 85.0303C315.305 85.9704 315.969 87.1267 316.586 88.2705C317.219 89.4442 317.797 90.5913 318.426 91.6445C318.906 92.4495 319.383 93.1375 319.873 93.6729C320.133 93.4906 320.477 93.2309 320.9 92.8916C321.957 92.0453 323.429 90.7796 325.188 89.2207C328.703 86.1064 333.317 81.8628 337.937 77.5664C342.555 73.2712 347.174 68.9284 350.698 65.6182C352.46 63.9637 353.949 62.5658 355.027 61.5615C355.566 61.0599 356.004 60.6544 356.323 60.3633C356.483 60.218 356.616 60.0977 356.718 60.0078C356.783 59.9503 356.87 59.8769 356.946 59.8184V59.8174C356.955 59.8107 356.964 59.8045 356.973 59.7979C356.982 59.7914 356.99 59.7842 356.998 59.7783V59.7793C357.581 59.3356 358.286 59.0709 359.021 59.0127Z" fill="#272624" stroke="#272624" stroke-width="2"/>
<path d="M312.336 57.8936C316.603 56.4491 322.408 55.9843 327.192 57.1865C329.673 57.8099 332.004 58.9133 333.678 60.6895C335.375 62.4901 336.296 64.8801 336.116 67.833C336.112 68.8151 335.785 69.797 335.146 70.5566C334.496 71.3285 333.554 71.8261 332.504 71.8262C331.454 71.8262 330.512 71.3284 329.862 70.5566C329.26 69.8404 328.934 68.9263 328.896 68.001L328.892 67.8154V67.7939C328.898 67.3165 328.694 66.9022 327.85 66.5088C326.941 66.0854 325.55 65.8455 323.856 65.8105C320.694 65.7453 317.072 66.3985 315.009 67.1338L314.617 67.2822L314.605 67.2871L314.594 67.291C307.508 70.0051 301.336 75.5253 297.907 82.2617C294.496 88.9623 293.817 96.8159 297.574 104.358C301.149 110.745 306.18 115.724 312.029 118.733C317.869 121.738 324.294 122.663 330.542 121.417C335.201 120.147 339.947 116.177 343.021 111.089C346.103 105.989 347.323 100.08 345.396 95.0469L345.371 94.9834L345.353 94.918C345.081 93.9551 345.109 92.9127 345.438 91.9678C345.766 91.023 346.392 90.1869 347.264 89.6689C348.147 89.1439 349.194 89.0042 350.186 89.3076C351.105 89.589 351.857 90.2115 352.361 91.0029L352.459 91.1641L352.502 91.2383L352.537 91.3174C355.971 99.2119 354.605 108.232 350.727 115.782C346.851 123.325 340.336 129.668 333.061 132.164L333.02 132.179L332.977 132.19C324.48 134.556 315.575 133.7 307.525 129.761C299.483 125.825 292.726 119.023 288.159 110.356L288.141 110.322L288.125 110.288C277.482 87.3438 291.674 64.3962 311.928 58.0361L312.336 57.8936Z" fill="#272624" stroke="#272624" stroke-width="3"/>
<path d="M48.995 57.3636V74.6222H2.54084V57.3636H48.995ZM12.2727 39.7216H35.7156V107.845C35.7156 109.283 35.9393 110.45 36.3867 111.344C36.8661 112.207 37.5533 112.831 38.4482 113.214C39.343 113.566 40.4137 113.741 41.6602 113.741C42.555 113.741 43.4979 113.662 44.4886 113.502C45.5114 113.31 46.2784 113.15 46.7898 113.022L50.3374 129.945C49.2188 130.265 47.6367 130.664 45.5913 131.144C43.5778 131.623 41.1648 131.927 38.3523 132.055C32.8551 132.31 28.141 131.671 24.2099 130.137C20.3107 128.571 17.3224 126.142 15.245 122.85C13.1996 119.558 12.2088 115.419 12.2727 110.434V39.7216ZM95.8884 132.39C88.154 132.39 81.5062 130.808 75.9452 127.644C70.4161 124.448 66.1494 120.006 63.1451 114.317C60.1728 108.596 58.6866 101.964 58.6866 94.4215C58.6866 86.8469 60.1728 80.2152 63.1451 74.5263C66.1494 68.8054 70.4161 64.3629 75.9452 61.1989C81.5062 58.0028 88.154 56.4048 95.8884 56.4048C103.623 56.4048 110.254 58.0028 115.784 61.1989C121.345 64.3629 125.611 68.8054 128.584 74.5263C131.588 80.2152 133.09 86.8469 133.09 94.4215C133.09 101.964 131.588 108.596 128.584 114.317C125.611 120.006 121.345 124.448 115.784 127.644C110.254 130.808 103.623 132.39 95.8884 132.39ZM96.0322 114.7C98.8447 114.7 101.226 113.837 103.175 112.112C105.125 110.386 106.611 107.989 107.634 104.92C108.688 101.852 109.216 98.3047 109.216 94.2777C109.216 90.1868 108.688 86.6072 107.634 83.5391C106.611 80.4709 105.125 78.0739 103.175 76.348C101.226 74.6222 98.8447 73.7592 96.0322 73.7592C93.1238 73.7592 90.6629 74.6222 88.6494 76.348C86.6678 78.0739 85.1497 80.4709 84.095 83.5391C83.0723 86.6072 82.5609 90.1868 82.5609 94.2777C82.5609 98.3047 83.0723 101.852 84.095 104.92C85.1497 107.989 86.6678 110.386 88.6494 112.112C90.6629 113.837 93.1238 114.7 96.0322 114.7ZM226.22 132.055C220.787 132.055 215.849 130.648 211.407 127.836C206.964 125.023 203.417 120.805 200.764 115.18C198.111 109.555 196.785 102.571 196.785 94.2298C196.785 85.5685 198.159 78.4414 200.908 72.8484C203.656 67.2553 207.252 63.1165 211.694 60.4318C216.169 57.7472 220.979 56.4048 226.125 56.4048C229.992 56.4048 233.3 57.076 236.048 58.4183C238.797 59.7287 241.066 61.4226 242.856 63.5C244.645 65.5774 246.004 67.7347 246.931 69.9719H247.41V32.8182H270.853V131H247.65V119.063H246.931C245.94 121.332 244.534 123.457 242.712 125.439C240.89 127.42 238.605 129.018 235.856 130.233C233.14 131.447 229.928 132.055 226.22 132.055ZM234.37 113.789C237.215 113.789 239.644 112.99 241.657 111.392C243.671 109.762 245.221 107.477 246.307 104.537C247.394 101.597 247.937 98.1449 247.937 94.1818C247.937 90.1548 247.394 86.6871 246.307 83.7788C245.253 80.8704 243.703 78.6332 241.657 77.0671C239.644 75.5011 237.215 74.718 234.37 74.718C231.462 74.718 229.001 75.517 226.987 77.1151C224.974 78.7131 223.44 80.9663 222.385 83.8746C221.362 86.783 220.851 90.2187 220.851 94.1818C220.851 98.1449 221.378 101.597 222.433 104.537C223.488 107.477 225.006 109.762 226.987 111.392C229.001 112.99 231.462 113.789 234.37 113.789ZM436.25 79.8477L414.725 80.4229C414.501 78.8888 413.894 77.5305 412.903 76.348C411.913 75.1335 410.618 74.1907 409.02 73.5195C407.454 72.8164 405.633 72.4648 403.555 72.4648C400.838 72.4648 398.521 73.0082 396.604 74.0948C394.718 75.1815 393.791 76.6516 393.823 78.5053C393.791 79.9435 394.367 81.19 395.549 82.2447C396.764 83.2994 398.921 84.1463 402.021 84.7855L416.211 87.4702C423.562 88.8764 429.027 91.2095 432.607 94.4695C436.218 97.7294 438.04 102.044 438.072 107.413C438.04 112.463 436.538 116.858 433.566 120.597C430.625 124.336 426.598 127.245 421.485 129.322C416.371 131.368 410.522 132.39 403.939 132.39C393.424 132.39 385.13 130.233 379.058 125.918C373.017 121.572 369.565 115.755 368.702 108.468L391.858 107.893C392.369 110.577 393.695 112.623 395.837 114.029C397.978 115.435 400.711 116.138 404.034 116.138C407.039 116.138 409.484 115.579 411.369 114.461C413.255 113.342 414.214 111.856 414.246 110.002C414.214 108.34 413.479 107.014 412.041 106.023C410.602 105 408.349 104.201 405.281 103.626L392.433 101.181C385.05 99.8388 379.553 97.3619 375.941 93.7504C372.33 90.1069 370.54 85.4727 370.572 79.8477C370.54 74.9258 371.851 70.723 374.503 67.2393C377.156 63.7237 380.927 61.0391 385.817 59.1854C390.707 57.3317 396.476 56.4048 403.124 56.4048C413.095 56.4048 420.957 58.4982 426.71 62.685C432.463 66.8398 435.643 72.5607 436.25 79.8477Z" fill="#272624"/>
<path d="M158.063 86.6168C153.533 86.3452 149.067 87.9317 145.473 91.0896C143.691 93.1226 143.335 98.9508 145.473 100.577C149.107 101.705 152.882 102.117 156.638 101.797C161.108 102.068 165.589 102.068 170.059 101.797C177.542 100.848 181.937 103.288 185.381 97.4599C185.902 95.9836 186.099 94.3843 185.954 92.8015C185.809 91.2187 185.327 89.7004 184.55 88.3788C180.749 84.3127 178.136 86.7524 171.603 86.4813C167.092 86.1913 162.569 86.2366 158.063 86.6168Z" fill="#272624"/>
</svg>
